<svg id="Capa_1" data-name="Capa 1" xmlns="http://www.w3.org/2000/svg" xmlns:xlink="http://www.w3.org/1999/xlink" viewBox="0 0 960 256"><defs><style>.cls-1,.cls-10,.cls-111,.cls-145,.cls-146,.cls-5,.cls-8,.cls-93{fill:none;}.cls-115,.cls-2,.cls-6,.cls-95{fill:#fff;}.cls-3{clip-path:url(#clip-path);}.cls-4{fill:#fdfdfd;}.cls-10,.cls-5,.cls-8{stroke:#2f528f;}.cls-10,.cls-111,.cls-145,.cls-146,.cls-5,.cls-8,.cls-93{stroke-miterlimit:8;}.cls-5{stroke-dasharray:3 1;}.cls-11,.cls-151,.cls-152,.cls-6{font-size:12px;}.cls-151,.cls-6{font-family:Calibri;}.cls-7{fill:#f7f7f7;}.cls-8,.cls-93{stroke-width:2.25px;}.cls-9{fill:#dbdbdb;}.cls-10,.cls-111{stroke-width:3px;}.cls-11,.cls-115,.cls-120,.cls-129,.cls-137,.cls-15,.cls-19,.cls-23,.cls-46,.cls-51,.cls-69,.cls-72,.cls-83,.cls-95,.cls-97{font-family:Raleway-Bold, Raleway;}.cls-11,.cls-115,.cls-120,.cls-129,.cls-137,.cls-15,.cls-152,.cls-19,.cls-23,.cls-46,.cls-51,.cls-69,.cls-72,.cls-83,.cls-95,.cls-97{font-weight:700;}.cls-12{letter-spacing:0em;}.cls-13{letter-spacing:0em;}.cls-14{letter-spacing:0em;}.cls-120,.cls-15,.cls-19{font-size:10.56px;}.cls-15,.cls-21{letter-spacing:0em;}.cls-16{letter-spacing:0em;}.cls-17{letter-spacing:0em;}.cls-18{letter-spacing:0em;}.cls-20{letter-spacing:0em;}.cls-22{fill:#fff2cc;}.cls-115,.cls-23,.cls-69,.cls-95{font-size:9px;}.cls-24{letter-spacing:0em;}.cls-25{letter-spacing:0em;}.cls-26{letter-spacing:-0.01em;}.cls-27{letter-spacing:-0.01em;}.cls-28{fill:#d6bcc0;}.cls-29{letter-spacing:0em;}.cls-30{letter-spacing:0em;}.cls-31{letter-spacing:0em;}.cls-32{letter-spacing:0em;}.cls-33{letter-spacing:-0.01em;}.cls-34{letter-spacing:0em;}.cls-35,.cls-69{letter-spacing:0em;}.cls-36{letter-spacing:0em;}.cls-37{letter-spacing:0.01em;}.cls-38{fill:#fbe5d6;}.cls-39{letter-spacing:-0.01em;}.cls-40{letter-spacing:0em;}.cls-41{letter-spacing:-0.01em;}.cls-42{letter-spacing:-0.03em;}.cls-43{letter-spacing:-0.01em;}.cls-44{letter-spacing:-0.01em;}.cls-45{fill:#e2f0d9;}.cls-46,.cls-51{font-size:8.04px;}.cls-47{letter-spacing:0.01em;}.cls-48{letter-spacing:-0.02em;}.cls-49{letter-spacing:0em;}.cls-50{letter-spacing:-0.01em;}.cls-51,.cls-62{letter-spacing:0.01em;}.cls-52{letter-spacing:0em;}.cls-53{letter-spacing:-0.01em;}.cls-54{letter-spacing:-0.01em;}.cls-55{letter-spacing:-0.01em;}.cls-56{letter-spacing:0em;}.cls-57{letter-spacing:0em;}.cls-58{letter-spacing:-0.01em;}.cls-59{letter-spacing:0em;}.cls-60{letter-spacing:-0.02em;}.cls-61{letter-spacing:0.01em;}.cls-63{letter-spacing:0em;}.cls-64{fill:#2f528f;}.cls-144,.cls-64{fill-rule:evenodd;}.cls-65{letter-spacing:-0.02em;}.cls-66{letter-spacing:0em;}.cls-67{letter-spacing:0.04em;}.cls-68{letter-spacing:0em;}.cls-70{letter-spacing:0em;}.cls-71{letter-spacing:0.01em;}.cls-72,.cls-83{font-size:8.52px;}.cls-73{letter-spacing:-0.02em;}.cls-74{letter-spacing:0.01em;}.cls-75{letter-spacing:-0.02em;}.cls-76{letter-spacing:0em;}.cls-77{letter-spacing:0em;}.cls-78{letter-spacing:0em;}.cls-79{letter-spacing:0em;}.cls-80{letter-spacing:0em;}.cls-81{letter-spacing:-0.02em;}.cls-82{letter-spacing:-0.01em;}.cls-83{letter-spacing:0em;}.cls-84{letter-spacing:-0.01em;}.cls-85{letter-spacing:0em;}.cls-86{letter-spacing:0em;}.cls-87{letter-spacing:0em;}.cls-88{letter-spacing:-0.02em;}.cls-89{letter-spacing:0em;}.cls-90{letter-spacing:-0.02em;}.cls-115,.cls-91{letter-spacing:0em;}.cls-92{letter-spacing:0em;}.cls-93{stroke:#8497b0;stroke-dasharray:9 6.75;}.cls-94{fill:#3b3838;}.cls-96{letter-spacing:0em;}.cls-129,.cls-147,.cls-97{font-size:6.96px;}.cls-98{letter-spacing:0em;}.cls-99{letter-spacing:0em;}.cls-100{letter-spacing:0em;}.cls-101{letter-spacing:0em;}.cls-102{letter-spacing:0em;}.cls-103{letter-spacing:-0.04em;}.cls-104{letter-spacing:0em;}.cls-105{letter-spacing:0em;}.cls-106{letter-spacing:0em;}.cls-107{letter-spacing:0em;}.cls-108{letter-spacing:0em;}.cls-109{letter-spacing:0em;}.cls-110{letter-spacing:0em;}.cls-111,.cls-145,.cls-146{stroke:#000;}.cls-112{letter-spacing:0em;}.cls-113{letter-spacing:-0.01em;}.cls-114{letter-spacing:0em;}.cls-116{letter-spacing:0em;}.cls-117{letter-spacing:0em;}.cls-118{letter-spacing:-0.01em;}.cls-119{fill:#f2f2f2;}.cls-120{letter-spacing:0em;}.cls-121{letter-spacing:0em;}.cls-122{letter-spacing:0em;}.cls-123{letter-spacing:0em;}.cls-124{letter-spacing:0em;}.cls-125{letter-spacing:0em;}.cls-126{letter-spacing:-0.01em;}.cls-127{letter-spacing:0em;}.cls-128{letter-spacing:-0.01em;}.cls-129{letter-spacing:-0.02em;}.cls-130{letter-spacing:-0.02em;}.cls-131{letter-spacing:0em;}.cls-132{letter-spacing:0em;}.cls-133{letter-spacing:0em;}.cls-134{letter-spacing:0.01em;}.cls-135{letter-spacing:0em;}.cls-136{letter-spacing:-0.01em;}.cls-137{font-size:6px;}.cls-138{letter-spacing:0em;}.cls-139{letter-spacing:0em;}.cls-140{letter-spacing:0em;}.cls-141{letter-spacing:0em;}.cls-142{letter-spacing:-0.02em;}.cls-143{letter-spacing:-0.02em;}.cls-146{stroke-width:1.5px;}.cls-147{font-family:Raleway-Regular, Raleway;}.cls-148{letter-spacing:0em;}.cls-149{letter-spacing:0.01em;}.cls-150{letter-spacing:0em;}.cls-151{fill:#404040;}.cls-152{font-family:Calibri-Bold, Calibri;}</style><clipPath id="clip-path"><rect class="cls-1" width="960" height="540"/></clipPath></defs><rect class="cls-2" width="960" height="256"/><g class="cls-3"><rect class="cls-4" x="15.96" y="15" width="935.04" height="230.4" rx="11.07"/><rect class="cls-5" x="15.96" y="15" width="935.04" height="230.4" rx="11.07"/></g><text class="cls-6" transform="translate(480.94 134.26)">º</text><g class="cls-3"><rect class="cls-7" x="66.54" y="44.46" width="735" height="192" rx="9.22"/><rect class="cls-8" x="66.54" y="44.46" width="735" height="192" rx="9.22"/></g><g class="cls-3"><rect class="cls-7" x="58.38" y="39.54" width="734.88" height="192" rx="9.22"/><rect class="cls-8" x="58.38" y="39.54" width="734.88" height="192" rx="9.22"/></g><g class="cls-3"><rect class="cls-7" x="50.1" y="34.62" width="734.88" height="192" rx="9.22"/><rect class="cls-8" x="50.1" y="34.62" width="734.88" height="192" rx="9.22"/></g><g class="cls-3"><rect class="cls-7" x="41.82" y="29.7" width="734.88" height="192" rx="9.22"/><rect class="cls-8" x="41.82" y="29.7" width="734.88" height="192" rx="9.22"/></g><g class="cls-3"><rect class="cls-7" x="33.54" y="24.78" width="735" height="192" rx="9.22"/><rect class="cls-8" x="33.54" y="24.78" width="735" height="192" rx="9.22"/></g><g class="cls-3"><rect class="cls-9" x="47.82" y="116.82" width="72.72" height="43.32" rx="7.22"/><rect class="cls-10" x="47.82" y="116.82" width="72.72" height="43.32" rx="7.22"/></g><text class="cls-11" transform="translate(66.03 134.4)"><tspan class="cls-12">I</tspan><tspan class="cls-13" x="3.47" y="0">m</tspan><tspan class="cls-14" x="14.64" y="0">ag</tspan><tspan x="29.06" y="0">e</tspan></text><text class="cls-15" transform="translate(60.63 151.32)">2<tspan class="cls-16" x="6" y="0">5</tspan><tspan class="cls-17" x="11.87" y="0">6</tspan><tspan class="cls-18" x="18.23" y="0"> </tspan></text><text class="cls-19" transform="translate(81.27 151.32)"><tspan class="cls-20">x</tspan><tspan x="5.64" y="0"> </tspan></text><text class="cls-19" transform="translate(89.44 151.32)"><tspan class="cls-21">2</tspan><tspan class="cls-20" x="6" y="0">5</tspan><tspan x="11.88" y="0">6</tspan></text><g class="cls-3"><rect class="cls-22" x="438.06" y="99.66" width="20.52" height="77.52" rx="3.42"/><rect class="cls-10" x="438.06" y="99.66" width="20.52" height="77.52" rx="3.42"/></g><text class="cls-23" transform="translate(451.5 162.66) rotate(-90)"><tspan class="cls-24">M</tspan><tspan x="7.79" y="0">a</tspan><tspan class="cls-25" x="12.96" y="0">x</tspan><tspan class="cls-26" x="17.76" y="0">P</tspan><tspan class="cls-27" x="23.28" y="0">oo</tspan><tspan x="34.1" y="0">l</tspan></text><text class="cls-23" transform="translate(451.5 125.7) rotate(-90)">2</text><text class="cls-23" transform="translate(451.5 120.66) rotate(-90)">D</text><g class="cls-3"><rect class="cls-28" x="595.38" y="99.66" width="20.52" height="77.52" rx="3.42"/><rect class="cls-10" x="595.38" y="99.66" width="20.52" height="77.52" rx="3.42"/></g><text class="cls-23" transform="translate(608.83 171.18) rotate(-90)"><tspan class="cls-29">L</tspan><tspan class="cls-30" x="5.27" y="0">i</tspan><tspan class="cls-31" x="7.56" y="0">n</tspan><tspan class="cls-32" x="12.97" y="0">e</tspan><tspan x="18.37" y="0">ar</tspan><tspan class="cls-33" x="27.02" y="0"> </tspan><tspan class="cls-31" x="29.07" y="0">(</tspan><tspan class="cls-34" x="31.83" y="0">F</tspan><tspan class="cls-35" x="37" y="0">C,</tspan><tspan x="45.17" y="0"> </tspan><tspan class="cls-36" x="47.33" y="0">2</tspan><tspan class="cls-37" x="52.38" y="0">56</tspan><tspan x="62.94" y="0">)</tspan></text><g class="cls-3"><rect class="cls-38" x="639.78" y="99.66" width="20.52" height="77.52" rx="3.42"/><rect class="cls-10" x="639.78" y="99.66" width="20.52" height="77.52" rx="3.42"/></g><text class="cls-23" transform="translate(653.24 149.94) rotate(-90)"><tspan class="cls-39">R</tspan><tspan class="cls-40" x="5.89" y="0">e</tspan><tspan class="cls-41" x="11.28" y="0">L</tspan><tspan x="16.44" y="0">U</tspan></text><g class="cls-3"><rect class="cls-28" x="684.3" y="99.66" width="20.4" height="77.52" rx="3.4"/><rect class="cls-10" x="684.3" y="99.66" width="20.4" height="77.52" rx="3.4"/></g><text class="cls-23" transform="translate(697.66 165.78) rotate(-90)"><tspan class="cls-29">L</tspan><tspan class="cls-30" x="5.27" y="0">i</tspan><tspan class="cls-31" x="7.56" y="0">n</tspan><tspan class="cls-32" x="12.97" y="0">e</tspan><tspan x="18.37" y="0">a</tspan><tspan class="cls-42" x="23.54" y="0">r</tspan><tspan class="cls-43" x="26.78" y="0"> </tspan><tspan class="cls-36" x="28.84" y="0">(</tspan><tspan class="cls-44" x="31.6" y="0">F</tspan><tspan class="cls-35" x="36.65" y="0">C,</tspan><tspan x="44.82" y="0"> </tspan></text><text class="cls-23" transform="translate(697.66 118.74) rotate(-90)">2</text><text class="cls-23" transform="translate(697.66 113.7) rotate(-90)">)</text><g class="cls-3"><rect class="cls-45" x="217.74" y="40.14" width="36" height="51" rx="6"/><rect class="cls-10" x="217.74" y="40.14" width="36" height="51" rx="6"/></g><text class="cls-46" transform="translate(229 80.63) rotate(-90)">C<tspan class="cls-47" x="5.52" y="0">o</tspan><tspan class="cls-48" x="10.43" y="0">n</tspan><tspan x="15.11" y="0">v</tspan></text><text class="cls-46" transform="translate(229 61.06) rotate(-90)">2</text><text class="cls-46" transform="translate(229 56.51) rotate(-90)">D </text><text class="cls-46" transform="translate(238.6 81.46) rotate(-90)"><tspan class="cls-49">(</tspan><tspan class="cls-50" x="2.52" y="0">k</tspan><tspan x="6.96" y="0">=</tspan></text><text class="cls-46" transform="translate(238.6 71.02) rotate(-90)">1</text><text class="cls-51" transform="translate(238.6 67.06) rotate(-90)">,<tspan class="cls-52" x="1.91" y="0" xml:space="preserve"> s=</tspan></text><text class="cls-46" transform="translate(238.6 55.77) rotate(-90)">1</text><text class="cls-51" transform="translate(238.6 51.81) rotate(-90)">,<tspan class="cls-52" x="1.91" y="0"> </tspan></text><text class="cls-46" transform="translate(248.2 82.17) rotate(-90)"><tspan class="cls-53">p</tspan><tspan x="5.05" y="0">=</tspan></text><text class="cls-46" transform="translate(248.2 73.65) rotate(-90)">‘</text><text class="cls-46" transform="translate(248.2 71.73) rotate(-90)"><tspan class="cls-54">v</tspan><tspan class="cls-55" x="4.33" y="0">a</tspan><tspan class="cls-56" x="8.89" y="0">l</tspan><tspan class="cls-57" x="11.42" y="0">i</tspan><tspan x="13.46" y="0">d</tspan></text><text class="cls-46" transform="translate(248.2 53.48) rotate(-90)">’</text><text class="cls-46" transform="translate(248.2 51.56) rotate(-90)">)</text><g class="cls-3"><rect class="cls-38" x="277.74" y="40.14" width="29.76" height="51" rx="4.96"/><rect class="cls-10" x="277.74" y="40.14" width="29.76" height="51" rx="4.96"/></g><text class="cls-46" transform="translate(290.62 78.42) rotate(-90)"><tspan class="cls-58">R</tspan><tspan class="cls-59" x="5.28" y="0">e</tspan><tspan class="cls-60" x="10.08" y="0">L</tspan><tspan x="14.65" y="0">U</tspan></text><text class="cls-46" transform="translate(290.62 56.22) rotate(-90)"><tspan class="cls-59">+</tspan><tspan x="3.37" y="0"> </tspan></text><text class="cls-46" transform="translate(300.22 84.31) rotate(-90)"><tspan class="cls-61">B</tspan><tspan class="cls-60" x="5.52" y="0">N</tspan><tspan class="cls-62" x="11.52" y="0">o</tspan><tspan class="cls-63" x="16.44" y="0">r</tspan><tspan x="19.56" y="0">m</tspan></text><text class="cls-46" transform="translate(300.22 57.31) rotate(-90)">2</text><text class="cls-46" transform="translate(300.22 52.75) rotate(-90)">D</text><line class="cls-10" x1="253.74" y1="65.7" x2="270.17" y2="65.7"/><polygon class="cls-64" points="268.67 61.2 277.67 65.7 268.67 70.2 268.67 61.2"/><g class="cls-3"><rect class="cls-45" x="182.1" y="99.66" width="28.68" height="77.52" rx="4.78"/><rect class="cls-10" x="182.1" y="99.66" width="28.68" height="77.52" rx="4.78"/></g><text class="cls-23" transform="translate(194.21 165.65) rotate(-90)"><tspan class="cls-35">Co</tspan><tspan class="cls-65" x="11.54" y="0">n</tspan><tspan x="16.82" y="0">v</tspan></text><text class="cls-23" transform="translate(194.21 143.93) rotate(-90)">2</text><text class="cls-23" transform="translate(194.21 138.89) rotate(-90)"><tspan class="cls-66">D</tspan><tspan class="cls-67" x="6.48" y="0"> </tspan><tspan class="cls-36" x="9" y="0">(</tspan><tspan class="cls-68" x="11.76" y="0">k</tspan><tspan x="16.79" y="0">=</tspan></text><text class="cls-23" transform="translate(194.21 118.26) rotate(-90)">3</text><text class="cls-69" transform="translate(194.21 113.22) rotate(-90)">,<tspan class="cls-70" x="2.04" y="0"> </tspan></text><text class="cls-23" transform="translate(205.01 166.74) rotate(-90)">s=</text><text class="cls-23" transform="translate(205.01 158.34) rotate(-90)">1</text><text class="cls-23" transform="translate(205.01 153.9) rotate(-90)"><tspan class="cls-35">,</tspan><tspan class="cls-71" x="2.04" y="0"> </tspan><tspan class="cls-37" x="4.32" y="0">p</tspan><tspan x="10.08" y="0">=</tspan></text><text class="cls-23" transform="translate(205.01 139.86) rotate(-90)">‘</text><text class="cls-23" transform="translate(205.01 137.7) rotate(-90)">sa<tspan class="cls-25" x="9.61" y="0">m</tspan><tspan x="18.01" y="0">e</tspan></text><text class="cls-23" transform="translate(205.01 114.91) rotate(-90)">’</text><text class="cls-23" transform="translate(205.01 112.75) rotate(-90)">)</text><g class="cls-3"><rect class="cls-38" x="234.3" y="99.66" width="26.52" height="77.52" rx="4.42"/><rect class="cls-10" x="234.3" y="99.66" width="26.52" height="77.52" rx="4.42"/></g><text class="cls-72" transform="translate(245.47 152.03) rotate(-90)"><tspan class="cls-73">R</tspan><tspan class="cls-74" x="5.52" y="0">e</tspan><tspan class="cls-75" x="10.68" y="0">L</tspan><tspan x="15.47" y="0">U</tspan></text><text class="cls-72" transform="translate(245.47 128.39) rotate(-90)"><tspan class="cls-76">+</tspan><tspan x="3.6" y="0"> </tspan></text><text class="cls-72" transform="translate(255.67 167.15) rotate(-90)"><tspan class="cls-77">B</tspan><tspan class="cls-78" x="5.77" y="0">a</tspan><tspan class="cls-79" x="10.68" y="0">t</tspan><tspan class="cls-80" x="13.93" y="0">c</tspan><tspan class="cls-76" x="18.74" y="0">h</tspan><tspan class="cls-81" x="23.89" y="0">N</tspan><tspan x="30.25" y="0">o</tspan><tspan class="cls-82" x="35.42" y="0">r</tspan><tspan x="38.66" y="0">m</tspan></text><text class="cls-72" transform="translate(255.67 120.58) rotate(-90)">2</text><text class="cls-72" transform="translate(255.67 115.79) rotate(-90)">D</text><line class="cls-10" x1="210.78" y1="138.42" x2="226.79" y2="138.42"/><polygon class="cls-64" points="225.29 133.92 234.29 138.42 225.29 142.92 225.29 133.92"/><g class="cls-3"><rect class="cls-45" x="278.34" y="99.66" width="28.68" height="77.52" rx="4.78"/><rect class="cls-10" x="278.34" y="99.66" width="28.68" height="77.52" rx="4.78"/></g><text class="cls-23" transform="translate(290.42 165.65) rotate(-90)"><tspan class="cls-35">Co</tspan><tspan class="cls-65" x="11.54" y="0">n</tspan><tspan x="16.82" y="0">v</tspan></text><text class="cls-23" transform="translate(290.42 143.93) rotate(-90)">2</text><text class="cls-23" transform="translate(290.42 138.89) rotate(-90)"><tspan class="cls-66">D</tspan><tspan class="cls-67" x="6.48" y="0"> </tspan><tspan class="cls-36" x="9" y="0">(</tspan><tspan class="cls-68" x="11.76" y="0">k</tspan><tspan x="16.79" y="0">=</tspan></text><text class="cls-23" transform="translate(290.42 118.26) rotate(-90)">3</text><text class="cls-69" transform="translate(290.42 113.22) rotate(-90)">,<tspan class="cls-70" x="2.04" y="0"> </tspan></text><text class="cls-23" transform="translate(301.22 166.74) rotate(-90)">s=</text><text class="cls-23" transform="translate(301.22 158.34) rotate(-90)">1</text><text class="cls-23" transform="translate(301.22 153.9) rotate(-90)"><tspan class="cls-35">,</tspan><tspan class="cls-71" x="2.04" y="0"> </tspan><tspan class="cls-37" x="4.32" y="0">p</tspan><tspan x="10.08" y="0">=</tspan></text><text class="cls-23" transform="translate(301.22 139.86) rotate(-90)">‘</text><text class="cls-23" transform="translate(301.22 137.7) rotate(-90)">sa<tspan class="cls-25" x="9.61" y="0">m</tspan><tspan x="18.01" y="0">e</tspan></text><text class="cls-23" transform="translate(301.22 114.91) rotate(-90)">’</text><text class="cls-23" transform="translate(301.22 112.75) rotate(-90)">)</text><g class="cls-3"><rect class="cls-38" x="325.38" y="99.66" width="25.56" height="77.52" rx="4.26"/><rect class="cls-10" x="325.38" y="99.66" width="25.56" height="77.52" rx="4.26"/></g><text class="cls-83" transform="translate(336.08 152.21) rotate(-90)">R<tspan class="cls-74" x="5.65" y="0">e</tspan><tspan class="cls-84" x="10.8" y="0">L</tspan><tspan class="cls-85" x="15.73" y="0">U</tspan></text><text class="cls-72" transform="translate(336.08 128.09) rotate(-90)"><tspan class="cls-76">+</tspan><tspan x="3.6" y="0"> </tspan></text><text class="cls-72" transform="translate(346.28 167.22) rotate(-90)"><tspan class="cls-77">B</tspan><tspan class="cls-78" x="5.77" y="0">a</tspan><tspan class="cls-79" x="10.68" y="0">t</tspan><tspan class="cls-80" x="13.93" y="0">c</tspan><tspan class="cls-76" x="18.74" y="0">h</tspan><tspan class="cls-86" x="23.89" y="0">N</tspan><tspan x="30.37" y="0">o</tspan><tspan class="cls-82" x="35.54" y="0">r</tspan><tspan class="cls-87" x="38.78" y="0">m</tspan><tspan x="46.71" y="0">2D</tspan></text><line class="cls-10" x1="307.02" y1="138.42" x2="317.91" y2="138.42"/><polygon class="cls-64" points="316.41 133.92 325.41 138.42 316.41 142.92 316.41 133.92"/><line class="cls-10" x1="260.82" y1="138.42" x2="270.75" y2="138.42"/><polygon class="cls-64" points="269.25 133.92 278.25 138.42 269.25 142.92 269.25 133.92"/><line class="cls-10" x1="120.54" y1="138.42" x2="174.58" y2="138.42"/><polygon class="cls-64" points="173.08 133.92 182.08 138.42 173.08 142.92 173.08 133.92"/><g class="cls-3"><path class="cls-64" d="M148.44,138c0-.4.51-.72,1.14-.72s1.14.32,1.14.72-.51.72-1.14.72-1.14-.32-1.14-.72"/></g><g class="cls-3"><path class="cls-10" d="M148.86,137.62c0-33.33,29.64-66.67,61.45-71.36"/><polygon class="cls-64" points="208.54 61.88 217.85 65.7 209.21 70.86 208.54 61.88"/></g><line class="cls-10" x1="350.94" y1="138.42" x2="378.43" y2="138.42"/><polygon class="cls-64" points="376.93 133.92 385.93 138.42 376.93 142.92 376.93 133.92"/><g class="cls-3"><path class="cls-10" d="M307.5,65.7c40.18,0,80.36,27.24,86.38,56.61"/><polygon class="cls-64" points="398.21 120.37 394.66 129.79 389.26 121.3 398.21 120.37"/></g><line class="cls-10" x1="403.38" y1="138.42" x2="430.63" y2="138.42"/><polygon class="cls-64" points="429.13 142.92 438.13 138.42 429.13 133.92 429.13 142.92"/><line class="cls-10" x1="458.58" y1="138.42" x2="492.02" y2="138.42"/><polygon class="cls-64" points="490.52 133.92 499.52 138.42 490.52 142.92 490.52 133.92"/><g class="cls-3"><rect class="cls-45" x="499.5" y="99.66" width="27.6" height="77.52" rx="4.6"/><rect class="cls-10" x="499.5" y="99.66" width="27.6" height="77.52" rx="4.6"/></g><text class="cls-23" transform="translate(511.06 165.41) rotate(-90)"><tspan class="cls-35">Co</tspan><tspan class="cls-88" x="11.54" y="0">n</tspan><tspan x="16.82" y="0">v</tspan></text><text class="cls-23" transform="translate(511.06 143.69) rotate(-90)">2</text><text class="cls-23" transform="translate(511.06 138.65) rotate(-90)"><tspan class="cls-89">D</tspan><tspan class="cls-67" x="6.48" y="0"> </tspan><tspan class="cls-36" x="9" y="0">(</tspan><tspan class="cls-24" x="11.76" y="0">k</tspan><tspan x="16.79" y="0">=</tspan></text><text class="cls-23" transform="translate(511.06 117.89) rotate(-90)">1</text><text class="cls-23" transform="translate(511.06 113.45) rotate(-90)"><tspan class="cls-35">,</tspan><tspan x="2.04" y="0"> </tspan></text><text class="cls-23" transform="translate(521.86 165.65) rotate(-90)">s=</text><text class="cls-23" transform="translate(521.86 157.25) rotate(-90)">1</text><text class="cls-23" transform="translate(521.86 152.82) rotate(-90)"><tspan class="cls-35">,</tspan><tspan class="cls-71" x="2.04" y="0"> </tspan><tspan class="cls-37" x="4.32" y="0">p</tspan><tspan x="10.08" y="0">=</tspan></text><text class="cls-23" transform="translate(521.86 138.78) rotate(-90)">‘</text><text class="cls-23" transform="translate(521.86 136.62) rotate(-90)"><tspan class="cls-90">v</tspan><tspan x="4.81" y="0">a</tspan><tspan class="cls-91" x="9.97" y="0">l</tspan><tspan class="cls-92" x="12.85" y="0">i</tspan><tspan x="15.14" y="0">d</tspan></text><text class="cls-23" transform="translate(521.86 116.1) rotate(-90)">’</text><text class="cls-23" transform="translate(521.86 113.94) rotate(-90)">)</text><g class="cls-3"><rect class="cls-38" x="550.98" y="99.66" width="20.52" height="77.52" rx="3.42"/><rect class="cls-10" x="550.98" y="99.66" width="20.52" height="77.52" rx="3.42"/></g><text class="cls-23" transform="translate(564.41 149.94) rotate(-90)"><tspan class="cls-39">R</tspan><tspan class="cls-40" x="5.89" y="0">e</tspan><tspan class="cls-41" x="11.28" y="0">L</tspan><tspan x="16.44" y="0">U</tspan></text><line class="cls-10" x1="527.1" y1="138.42" x2="543.54" y2="138.42"/><polygon class="cls-64" points="542.04 133.92 551.04 138.42 542.04 142.92 542.04 133.92"/><g class="cls-3"><rect class="cls-93" x="135.42" y="34.14" width="340.56" height="154.8" rx="5.49"/></g><line class="cls-10" x1="571.5" y1="138.42" x2="587.94" y2="138.42"/><polygon class="cls-64" points="586.44 133.92 595.44 138.42 586.44 142.92 586.44 133.92"/><line class="cls-10" x1="615.9" y1="138.42" x2="632.34" y2="138.42"/><polygon class="cls-64" points="630.84 133.92 639.84 138.42 630.84 142.92 630.84 133.92"/><line class="cls-10" x1="660.3" y1="138.42" x2="676.74" y2="138.42"/><polygon class="cls-64" points="675.24 133.92 684.24 138.42 675.24 142.92 675.24 133.92"/><g class="cls-3"><rect class="cls-94" x="728.7" y="99.66" width="20.4" height="77.52" rx="3.4"/><rect class="cls-10" x="728.7" y="99.66" width="20.4" height="77.52" rx="3.4"/></g><text class="cls-95" transform="translate(742.08 157.74) rotate(-90)"><tspan class="cls-35">T</tspan><tspan class="cls-34" x="5.53" y="0">B</tspan><tspan class="cls-71" x="11.65" y="0"> </tspan><tspan x="13.92" y="0">S</tspan><tspan class="cls-96" x="19.44" y="0">c</tspan><tspan class="cls-35" x="24.48" y="0">o</tspan><tspan class="cls-44" x="29.89" y="0">r</tspan><tspan x="33.25" y="0">e</tspan></text><line class="cls-10" x1="704.7" y1="138.42" x2="721.14" y2="138.42"/><polygon class="cls-64" points="719.64 133.92 728.64 138.42 719.64 142.92 719.64 133.92"/><text class="cls-97" transform="translate(436.15 45.96)"><tspan class="cls-98">x</tspan><tspan class="cls-99" x="3.72" y="0"> </tspan><tspan class="cls-100" x="5.39" y="0">N</tspan><tspan class="cls-99" x="10.68" y="0"> </tspan><tspan class="cls-101" x="12.35" y="0">t</tspan><tspan class="cls-102" x="15" y="0">i</tspan><tspan x="16.8" y="0">m</tspan><tspan class="cls-98" x="23.28" y="0">e</tspan><tspan x="27.47" y="0">s</tspan></text><g class="cls-3"><path class="cls-10" d="M578.7,194.7c0,1.62-.22,2.94-.49,2.94H354.85c-.27,0-.49,1.32-.49,2.94,0-1.62-.22-2.94-.49-2.94H130.51c-.27,0-.49-1.32-.49-2.94"/></g><text class="cls-46" transform="translate(319 209.89)"><tspan class="cls-103">F</tspan><tspan class="cls-104" x="4.33" y="0">e</tspan><tspan class="cls-53" x="9.13" y="0">a</tspan><tspan class="cls-105" x="13.69" y="0">t</tspan><tspan class="cls-53" x="16.81" y="0">u</tspan><tspan class="cls-106" x="21.73" y="0">r</tspan><tspan x="24.85" y="0">e</tspan></text><text class="cls-46" transform="translate(350.32 209.89)"><tspan class="cls-60">e</tspan><tspan class="cls-62" x="4.69" y="0">x</tspan><tspan class="cls-107" x="9" y="0">t</tspan><tspan x="12.12" y="0">r</tspan><tspan class="cls-55" x="15.24" y="0">a</tspan><tspan class="cls-108" x="19.8" y="0">c</tspan><tspan class="cls-107" x="24.36" y="0">t</tspan><tspan class="cls-109" x="27.48" y="0">i</tspan><tspan class="cls-110" x="29.52" y="0">o</tspan><tspan x="34.43" y="0">n</tspan></text><g class="cls-3"><path class="cls-111" d="M805.14,21.9c5.3,0,9.6.72,9.6,1.6V127.58c0,.88,4.3,1.6,9.6,1.6-5.3,0-9.6.72-9.6,1.6V234.86c0,.88-4.3,1.6-9.6,1.6"/></g><g class="cls-3"><path class="cls-10" d="M714.42,194.7c0,1.62-.22,2.94-.49,2.94H652.27c-.27,0-.49,1.32-.49,2.94,0-1.62-.22-2.94-.49-2.94H589.63c-.27,0-.49-1.32-.49-2.94"/></g><text class="cls-46" transform="translate(626.13 209.89)">C<tspan class="cls-112" x="5.52" y="0">l</tspan><tspan class="cls-113" x="8.04" y="0">a</tspan><tspan class="cls-109" x="12.61" y="0">s</tspan><tspan x="16.57" y="0">si</tspan><tspan class="cls-109" x="22.59" y="0">ﬁ</tspan><tspan class="cls-49" x="27.15" y="0">c</tspan><tspan class="cls-113" x="31.71" y="0">a</tspan><tspan class="cls-114" x="36.28" y="0">t</tspan><tspan x="39.4" y="0">i</tspan><tspan class="cls-61" x="41.45" y="0">o</tspan><tspan x="46.37" y="0">n</tspan></text><line class="cls-10" x1="852.42" y1="129.18" x2="865.29" y2="129.18"/><polygon class="cls-64" points="863.79 133.68 872.79 129.18 863.79 124.68 863.79 133.68"/><g class="cls-3"><rect class="cls-94" x="913.98" y="90.42" width="20.52" height="77.52" rx="3.42"/><rect class="cls-10" x="913.98" y="90.42" width="20.52" height="77.52" rx="3.42"/></g><text class="cls-95" transform="translate(927.41 159.17) rotate(-90)"><tspan class="cls-35">T</tspan><tspan class="cls-34" x="5.53" y="0">B</tspan><tspan class="cls-71" x="11.65" y="0"> </tspan><tspan x="13.92" y="0"> </tspan></text><text class="cls-115" transform="translate(927.41 143.21) rotate(-90)">P<tspan class="cls-44" x="5.63" y="0">r</tspan><tspan class="cls-24" x="9" y="0">e</tspan><tspan class="cls-116" x="14.4" y="0">d</tspan><tspan class="cls-92" x="20.17" y="0">i</tspan><tspan class="cls-36" x="22.46" y="0">c</tspan><tspan class="cls-117" x="27.5" y="0">t</tspan><tspan class="cls-92" x="30.98" y="0">i</tspan><tspan class="cls-118" x="33.26" y="0">o</tspan><tspan class="cls-40" x="38.67" y="0">n</tspan></text><g class="cls-3"><rect class="cls-119" x="872.82" y="90.42" width="20.52" height="77.52" rx="3.42"/><rect class="cls-10" x="872.82" y="90.42" width="20.52" height="77.52" rx="3.42"/></g><text class="cls-120" transform="translate(886.79 150.29) rotate(-90)">S<tspan class="cls-121" x="6.48" y="0">o</tspan><tspan class="cls-122" x="12.85" y="0">f</tspan><tspan class="cls-123" x="16.8" y="0">t</tspan><tspan class="cls-124" x="20.88" y="0">m</tspan><tspan class="cls-17" x="30.72" y="0">a</tspan><tspan class="cls-125" x="36.73" y="0">x</tspan></text><line class="cls-10" x1="893.34" y1="129.18" x2="906.52" y2="129.18"/><polygon class="cls-64" points="905.02 124.68 914.02 129.18 905.02 133.68 905.02 124.68"/><text class="cls-97" transform="translate(829.93 150.49)">5</text><text class="cls-97" transform="translate(833.77 150.49)">-</text><text class="cls-97" transform="translate(836.65 150.49)"><tspan class="cls-126">f</tspan><tspan class="cls-127" x="2.52" y="0">o</tspan><tspan class="cls-128" x="6.72" y="0">l</tspan><tspan x="8.89" y="0">d</tspan></text><text class="cls-129" transform="translate(833.89 158.89)">a<tspan class="cls-130" x="3.85" y="0">v</tspan><tspan class="cls-131" x="7.57" y="0">g</tspan></text><text class="cls-97" transform="translate(820.09 167.29)"><tspan class="cls-132">e</tspan><tspan class="cls-133" x="4.2" y="0">n</tspan><tspan class="cls-134" x="8.4" y="0">s</tspan><tspan class="cls-102" x="11.88" y="0">e</tspan><tspan class="cls-131" x="16.08" y="0">m</tspan><tspan class="cls-135" x="22.56" y="0">b</tspan><tspan class="cls-136" x="26.99" y="0">l</tspan><tspan class="cls-135" x="29.16" y="0">i</tspan><tspan x="30.95" y="0">ng</tspan></text><text class="cls-137" transform="translate(18.19 223.21)"><tspan class="cls-138">M</tspan><tspan class="cls-139" x="5.17" y="0">o</tspan><tspan class="cls-140" x="8.77" y="0">d</tspan><tspan class="cls-141" x="12.62" y="0">e</tspan><tspan class="cls-142" x="16.21" y="0">l</tspan><tspan x="18.02" y="0"> </tspan></text><text class="cls-137" transform="translate(37.63 223.21)">1</text><text class="cls-137" transform="translate(46.87 240.58)"><tspan class="cls-138">M</tspan><tspan class="cls-139" x="5.17" y="0">o</tspan><tspan class="cls-140" x="8.77" y="0">d</tspan><tspan class="cls-24" x="12.62" y="0">e</tspan><tspan class="cls-143" x="16.22" y="0">l</tspan><tspan x="18.02" y="0"> </tspan></text><text class="cls-137" transform="translate(66.31 240.58)">5</text><g class="cls-3"><path class="cls-144" d="M35,228.66a.65.65,0,0,1,.12-.89.57.57,0,1,1,.78.79.65.65,0,0,1-.9.1"/><path class="cls-145" d="M35,228.66a.65.65,0,0,1,.12-.89.57.57,0,1,1,.78.79A.65.65,0,0,1,35,228.66Z"/></g><g class="cls-3"><path class="cls-144" d="M38.9,231.81a.64.64,0,0,1,.11-.89.57.57,0,1,1,.78.79.63.63,0,0,1-.89.1"/><path class="cls-145" d="M38.9,231.81a.64.64,0,0,1,.11-.89.57.57,0,1,1,.78.79A.63.63,0,0,1,38.9,231.81Z"/></g><g class="cls-3"><path class="cls-144" d="M42.84,235a.64.64,0,0,1,.11-.89.66.66,0,0,1,.9-.1.65.65,0,0,1-.12.89.63.63,0,0,1-.89.1"/><path class="cls-145" d="M42.84,235a.64.64,0,0,1,.11-.89.66.66,0,0,1,.9-.1.65.65,0,0,1-.12.89A.63.63,0,0,1,42.84,235Z"/></g><g class="cls-3"><circle class="cls-146" cx="394.68" cy="138.48" r="8.7" transform="translate(169.23 490.79) rotate(-76.72)"/></g><line class="cls-145" x1="394.56" y1="129.72" x2="394.56" y2="147.09"/><line class="cls-145" x1="385.92" y1="138.36" x2="403.29" y2="138.36"/><text class="cls-147" transform="translate(383.52 159.86)"><tspan class="cls-148">c</tspan><tspan class="cls-149" x="3.83" y="0">o</tspan><tspan class="cls-150" x="8.03" y="0">nc</tspan><tspan class="cls-134" x="15.94" y="0">a</tspan><tspan x="19.77" y="0">t</tspan></text><g class="cls-3"><circle class="cls-146" cx="839.52" cy="129.6" r="8.7" transform="translate(398.51 855.62) rotate(-67.5)"/></g><text class="cls-151" transform="translate(836.84 133.6)">x</text><text class="cls-152" transform="translate(842 133.6)">̄</text></svg>